<svg width="25" height="25" viewBox="0 0 25 25" fill="none" xmlns="http://www.w3.org/2000/svg">
<path d="M17.6465 2.59692H7.64648C4.88506 2.59692 2.64648 4.8355 2.64648 7.59692V17.5969C2.64648 20.3583 4.88506 22.5969 7.64648 22.5969H17.6465C20.4079 22.5969 22.6465 20.3583 22.6465 17.5969V7.59692C22.6465 4.8355 20.4079 2.59692 17.6465 2.59692Z" stroke="white" stroke-width="2" stroke-linecap="round" stroke-linejoin="round"/>
<path d="M16.6462 11.967C16.7696 12.7992 16.6274 13.6492 16.24 14.396C15.8525 15.1428 15.2393 15.7484 14.4878 16.1267C13.7363 16.5049 12.8846 16.6366 12.054 16.5029C11.2233 16.3692 10.456 15.9771 9.86103 15.3821C9.26611 14.7872 8.87392 14.0199 8.74026 13.1892C8.60659 12.3585 8.73826 11.5069 9.11652 10.7554C9.49478 10.0038 10.1004 9.39072 10.8472 9.00322C11.594 8.61572 12.4439 8.47357 13.2762 8.59698C14.1251 8.72287 14.911 9.11844 15.5179 9.72529C16.1247 10.3321 16.5203 11.1181 16.6462 11.967Z" stroke="white" stroke-width="2" stroke-linecap="round" stroke-linejoin="round"/>
<path d="M18.1465 7.09692H18.1565" stroke="white" stroke-width="2" stroke-linecap="round" stroke-linejoin="round"/>
</svg>
